<?xml version="1.0" encoding="UTF-8" standalone="no"?><!DOCTYPE svg PUBLIC "-//W3C//DTD SVG 1.1//EN" "http://www.w3.org/Graphics/SVG/1.1/DTD/svg11.dtd"><svg width="100%" height="100%" viewBox="0 0 600 800" version="1.1" xmlns="http://www.w3.org/2000/svg" xmlns:xlink="http://www.w3.org/1999/xlink" xml:space="preserve" xmlns:serif="http://www.serif.com/" style="fill-rule:evenodd;clip-rule:evenodd;stroke-linecap:round;stroke-linejoin:round;stroke-miterlimit:1.5;"><rect x="0" y="0" width="600" height="800" style="fill:#8a3942;fill-opacity:0.74;"/><path d="M0,800l600,-269.812l0,269.812l-600,0" style="fill:#262626;"/><path d="M600.218,0l-600,269.812l0,-269.812l600,0" style="fill:#262626;"/><path id="Globe-Earth" serif:id="Globe Earth" d="M119.353,377.759c2.502,-36.158 15.713,-70.114 38.376,-98.629c14.628,6.338 30.23,11.701 46.508,15.933c-7.487,26.045 -11.749,53.835 -12.693,82.696l-72.191,0Zm165.914,117.85l0,71.579c-20.524,-6.889 -39.618,-30.513 -53.286,-66.042c16.64,-3.083 34.523,-4.924 53.286,-5.537Zm-44.493,64.171c-25.339,-8.541 -48.458,-22.696 -67.772,-41.538c11.67,-4.623 24.363,-8.698 37.872,-12.126c8.053,21.5 18.245,39.745 29.9,53.664Zm-27.698,-157.059l72.191,0l0,71.137c-20.634,0.661 -40.83,2.925 -60.158,6.732c-6.936,-24.096 -11.057,-50.849 -12.033,-77.869Zm72.191,-96.098l0,71.136l-72.191,0c0.976,-27.036 5.097,-53.772 12.033,-77.853c19.423,3.807 39.618,6.072 60.158,6.717Zm-112.265,-44.385c19.329,-18.842 42.449,-32.997 67.772,-41.521c-11.655,13.888 -21.831,32.147 -29.9,53.647c-13.495,-3.428 -26.202,-7.502 -37.872,-12.126Zm58.979,17.096c13.668,-35.561 32.778,-59.168 53.286,-66.011l0,71.564c-18.778,-0.629 -36.662,-2.486 -53.286,-5.553Zm-27.744,206.083c-16.247,4.248 -31.864,9.595 -46.508,15.933c-22.663,-28.483 -35.874,-62.455 -38.376,-98.629l72.191,0c0.944,28.845 5.206,56.619 12.693,82.696Zm271.906,-82.775c-1.155,16.635 -4.561,32.797 -10.101,48.169c-6.527,18.114 -16.016,35.132 -28.275,50.539c-14.659,-6.338 -30.277,-11.685 -46.508,-15.917c7.471,-26.044 11.733,-53.837 12.693,-82.791l72.191,0Zm-165.914,-117.755l0,-71.564c20.524,6.843 39.618,30.466 53.286,66.011c-16.624,3.067 -34.508,4.924 -53.286,5.553Zm74.393,-10.523c-8.053,-21.5 -18.246,-39.759 -29.916,-53.647c25.323,8.524 48.459,22.679 67.773,41.521c-11.67,4.624 -24.362,8.698 -37.857,12.126Zm-2.218,103.395l-72.175,0l0,-71.136c20.602,-0.662 40.797,-2.926 60.143,-6.717c6.936,24.049 11.072,50.803 12.032,77.853Zm21.532,0c-0.944,-28.845 -5.206,-56.619 -12.693,-82.681c16.263,-4.247 31.865,-9.594 46.524,-15.948c22.663,28.499 35.86,62.455 38.36,98.629l-72.191,0Zm-93.707,96.099l0,-71.216l72.175,0c-0.96,27.115 -5.096,53.884 -12.032,77.932c-19.346,-3.807 -39.541,-6.071 -60.143,-6.716Zm112.265,44.384c-19.314,18.842 -42.449,32.997 -67.788,41.538c11.67,-13.919 21.863,-32.164 29.916,-53.664c13.525,3.444 26.218,7.503 37.872,12.126Zm-58.995,-17.096c-13.652,35.529 -32.746,59.137 -53.27,66.042l0,-71.579c18.699,0.613 36.567,2.454 53.27,5.537Zm-65.759,-311.508c-110.599,0 -200.594,89.995 -200.594,200.61c0,110.6 89.995,200.595 200.594,200.595c110.615,0 200.61,-89.995 200.61,-200.595c0,-110.615 -89.995,-200.61 -200.61,-200.61Z"/><g><path d="M136.337,420.595c0,0 122.3,15.023 162.491,-0.276c43.846,15.026 165.584,-3.892 165.584,-3.892c0,0 21.396,158.365 -165.584,158.365c-186.979,0 -162.491,-154.197 -162.491,-154.197Z" style="fill:#66fff9;stroke:#000;stroke-width:3.63px;"/><ellipse cx="152.269" cy="455.271" rx="8.375" ry="10.802" style="fill:#adadad;stroke:#000;stroke-width:3.63px;"/><ellipse cx="152.269" cy="479.872" rx="8.375" ry="10.802" style="fill:#adadad;stroke:#000;stroke-width:3.63px;"/><ellipse cx="449.112" cy="473.312" rx="8.375" ry="10.802" style="fill:#adadad;stroke:#000;stroke-width:3.63px;"/><ellipse cx="449.923" cy="447.89" rx="8.375" ry="10.802" style="fill:#adadad;stroke:#000;stroke-width:3.63px;"/><path d="M150.944,449.141c0,0 -22.661,-5.527 -50.649,-21.197c-3.749,-2.1 -5.997,9.904 4.267,14.903c29.824,14.527 41.789,19.301 46.111,18.252c4.323,-1.049 8.668,-7.308 0.271,-11.958Z" style="fill:#626262;stroke:#000;stroke-width:3.63px;"/><path d="M449.056,441.76c0,0 22.661,-5.527 50.649,-21.197c3.749,-2.099 5.997,9.904 -4.267,14.904c-29.824,14.527 -41.789,19.3 -46.111,18.251c-4.323,-1.049 -8.668,-7.308 -0.271,-11.958Z" style="fill:#626262;stroke:#000;stroke-width:3.63px;"/><path d="M448.41,467.182c0,0 19.599,-5.527 43.806,-21.197c3.243,-2.1 5.187,9.904 -3.691,14.903c-25.794,14.527 -36.143,19.301 -39.881,18.252c-3.739,-1.049 -7.497,-7.308 -0.234,-11.958Z" style="fill:#626262;stroke:#000;stroke-width:3.63px;"/><path d="M151.606,473.742c0,0 -19.523,-5.527 -43.637,-21.197c-3.23,-2.099 -5.167,9.904 3.677,14.904c25.695,14.526 36.003,19.3 39.727,18.251c3.724,-1.049 7.467,-7.308 0.233,-11.958Z" style="fill:#626262;stroke:#000;stroke-width:3.63px;"/></g></svg>