<?xml version="1.0" encoding="UTF-8" standalone="no"?><!DOCTYPE svg PUBLIC "-//W3C//DTD SVG 1.1//EN" "http://www.w3.org/Graphics/SVG/1.1/DTD/svg11.dtd"><svg width="100%" height="100%" viewBox="0 0 600 1000" version="1.1" xmlns="http://www.w3.org/2000/svg" xmlns:xlink="http://www.w3.org/1999/xlink" xml:space="preserve" xmlns:serif="http://www.serif.com/" style="fill-rule:evenodd;clip-rule:evenodd;stroke-linecap:round;stroke-linejoin:round;stroke-miterlimit:1.5;"><rect x="0" y="0" width="600" height="1000" style="fill:#ffb7ae;"/><path d="M0,1000l600,-213.17l0,213.17l-600,0Z"/><path d="M600,0l-600,213.17l0,-213.17l600,0Z"/><path id="Globe-Earth" serif:id="Globe Earth" d="M77.762,475.135c3.117,-45.045 19.574,-87.346 47.807,-122.869c18.223,7.895 37.66,14.577 57.938,19.849c-9.326,32.445 -14.636,67.066 -15.812,103.02l-89.933,0Zm206.69,146.813l0,89.17c-25.568,-8.582 -49.355,-38.012 -66.382,-82.272c20.73,-3.841 43.007,-6.134 66.382,-6.898Zm-55.429,79.942c-31.565,-10.64 -60.366,-28.274 -84.427,-51.747c14.538,-5.759 30.35,-10.836 47.18,-15.106c10.032,26.784 22.729,49.513 37.247,66.853Zm-34.504,-195.659l89.933,0l0,88.62c-25.706,0.823 -50.864,3.644 -74.943,8.386c-8.641,-30.018 -13.775,-63.345 -14.99,-97.006Zm89.933,-119.716l0,88.62l-89.933,0c1.215,-33.681 6.349,-66.988 14.99,-96.987c24.197,4.742 49.355,7.563 74.943,8.367Zm-139.856,-55.293c24.079,-23.473 52.882,-41.106 84.427,-51.726c-14.518,17.302 -27.195,40.049 -37.247,66.833c-16.812,-4.271 -32.642,-9.347 -47.18,-15.107Zm73.474,21.298c17.027,-44.301 40.834,-73.709 66.382,-82.234l0,89.151c-23.393,-0.783 -45.672,-3.096 -66.382,-6.917Zm-34.563,256.731c-20.24,5.292 -39.695,11.953 -57.938,19.848c-28.233,-35.482 -44.69,-77.804 -47.807,-122.868l89.933,0c1.176,35.934 6.486,70.535 15.812,103.02Zm338.731,-103.118c-3.135,45.142 -19.574,87.484 -47.807,122.966c-18.261,-7.895 -37.718,-14.556 -57.938,-19.828c9.306,-32.445 14.616,-67.068 15.812,-103.138l89.933,0Zm-206.69,-146.696l0,-89.151c25.568,8.525 49.355,37.953 66.382,82.234c-20.71,3.821 -42.989,6.134 -66.382,6.917Zm92.676,-13.108c-10.032,-26.784 -22.729,-49.531 -37.267,-66.833c31.545,10.62 60.368,28.253 84.429,51.726c-14.538,5.76 -30.35,10.836 -47.162,15.107Zm-2.763,128.806l-89.913,0l0,-88.62c25.666,-0.824 50.824,-3.645 74.925,-8.367c8.641,29.959 13.793,63.288 14.988,96.987Zm26.824,0c-1.176,-35.934 -6.486,-70.535 -15.812,-103.002c20.26,-5.29 39.697,-11.952 57.958,-19.867c28.233,35.503 44.672,77.804 47.787,122.869l-89.933,0Zm-116.737,119.716l0,-88.718l89.913,0c-1.195,33.779 -6.347,67.126 -14.988,97.084c-24.101,-4.742 -49.259,-7.563 -74.925,-8.366Zm139.856,55.292c-24.061,23.473 -52.882,41.107 -84.447,51.747c14.538,-17.34 27.235,-40.069 37.267,-66.853c16.85,4.29 32.662,9.347 47.18,15.106Zm-73.494,-21.297c-17.007,44.26 -40.794,73.67 -66.362,82.272l0,-89.17c23.295,0.764 45.554,3.057 66.362,6.898Zm-81.92,-388.067c-137.781,0 -249.894,112.113 -249.894,249.914c0,137.781 112.113,249.893 249.894,249.893c137.801,0 249.914,-112.112 249.914,-249.893c0,-137.801 -112.113,-249.914 -249.914,-249.914Z"/><path d="M99.652,532.855c0,0 150.793,18.32 200.348,-0.336c54.061,18.323 204.16,-4.747 204.16,-4.747c0,0 26.382,193.118 -204.16,193.118c-230.542,0 -200.348,-188.035 -200.348,-188.035Z" style="fill:#66fff9;stroke:#000;stroke-width:3.63px;"/><ellipse cx="119.296" cy="575.14" rx="10.326" ry="13.172" style="fill:#adadad;stroke:#000;stroke-width:3.63px;"/><ellipse cx="119.296" cy="605.14" rx="10.326" ry="13.172" style="fill:#adadad;stroke:#000;stroke-width:3.63px;"/><ellipse cx="485.296" cy="597.14" rx="10.326" ry="13.172" style="fill:#adadad;stroke:#000;stroke-width:3.63px;"/><ellipse cx="486.296" cy="566.14" rx="10.326" ry="13.172" style="fill:#adadad;stroke:#000;stroke-width:3.63px;"/><path d="M117.662,567.665c0,0 -27.94,-6.74 -62.449,-25.849c-4.623,-2.56 -7.394,12.078 5.261,18.175c36.772,17.714 51.525,23.535 56.854,22.256c5.33,-1.279 10.687,-8.912 0.334,-14.582Z" style="fill:#626262;stroke:#000;stroke-width:3.63px;"/><path d="M485.227,558.665c0,0 27.941,-6.74 62.449,-25.849c4.623,-2.56 7.395,12.078 -5.261,18.175c-36.772,17.714 -51.525,23.535 -56.854,22.256c-5.33,-1.279 -10.687,-8.912 -0.334,-14.582Z" style="fill:#626262;stroke:#000;stroke-width:3.63px;"/><path d="M484.43,589.665c0,0 24.166,-6.74 54.012,-25.849c3.999,-2.56 6.396,12.078 -4.55,18.175c-31.804,17.714 -44.564,23.535 -49.173,22.256c-4.61,-1.279 -9.243,-8.912 -0.289,-14.582Z" style="fill:#626262;stroke:#000;stroke-width:3.63px;"/><path d="M118.478,597.665c0,0 -24.072,-6.74 -53.803,-25.849c-3.983,-2.56 -6.37,12.078 4.533,18.175c31.681,17.714 44.391,23.535 48.983,22.256c4.592,-1.279 9.207,-8.912 0.287,-14.582Z" style="fill:#626262;stroke:#000;stroke-width:3.63px;"/></svg>